<svg id="svg" version="1.1" width="60" height="60" x="5" y="5" viewBox="0, 0, 400,400"><g id="svgg"><path id="path0" d="M190.500 77.411 C 123.919 80.090,73.478 139.581,81.811 205.600 C 91.051 278.803,166.458 324.380,235.287 298.362 C 306.687 271.372,332.078 183.530,286.088 122.614 C 263.610 92.841,227.806 75.909,190.500 77.411 M206.300 82.086 C 279.055 89.915,324.064 164.195,297.260 232.200 C 276.888 283.886,220.008 312.253,166.143 297.590 C 105.356 281.042,70.866 216.495,90.807 156.600 C 104.493 115.494,142.386 85.519,185.100 82.011 C 186.530 81.893,188.015 81.762,188.400 81.719 C 190.256 81.512,203.488 81.783,206.300 82.086 M224.700 133.139 C 212.947 134.160,205.666 137.983,204.307 143.844 C 203.968 145.308,203.335 146.000,202.338 146.000 C 201.985 146.000,201.425 146.078,201.091 146.174 C 200.709 146.283,199.824 146.249,198.693 146.081 C 195.785 145.650,190.460 145.348,188.200 145.488 C 184.242 145.732,184.123 145.660,182.998 142.369 C 181.394 137.674,178.430 135.941,170.200 134.882 C 166.861 134.452,153.984 134.385,148.100 134.766 C 138.770 135.370,120.856 137.534,119.582 138.211 C 119.408 138.303,118.530 138.472,117.633 138.584 C 111.436 139.361,106.514 147.746,106.058 158.300 C 105.931 161.236,107.183 171.247,108.010 173.914 C 108.114 174.252,108.200 174.725,108.200 174.966 C 108.200 176.790,112.103 184.328,114.587 187.300 C 115.323 188.180,116.144 189.200,116.412 189.567 C 117.415 190.938,121.379 193.583,125.615 195.708 C 133.479 199.652,143.882 200.518,153.452 198.025 C 163.418 195.430,166.252 193.960,171.293 188.772 C 179.537 180.288,182.484 174.671,182.891 166.669 C 182.954 165.442,183.139 163.423,183.302 162.182 C 183.466 160.941,183.600 159.273,183.600 158.475 C 183.600 157.677,183.690 156.968,183.800 156.900 C 183.910 156.832,184.000 156.474,184.000 156.104 C 184.000 153.890,186.001 153.300,193.500 153.300 L 199.100 153.300 200.369 153.936 C 201.884 154.696,202.400 155.130,202.400 155.645 C 202.400 156.794,204.894 168.758,205.996 172.900 C 207.390 178.134,209.595 183.791,210.596 184.696 C 210.818 184.897,211.000 185.178,211.000 185.320 C 211.000 186.227,216.883 191.800,217.840 191.800 C 217.949 191.800,218.266 191.980,218.545 192.200 C 218.825 192.420,219.178 192.600,219.329 192.600 C 219.480 192.600,219.976 192.870,220.432 193.200 C 220.887 193.530,221.415 193.800,221.606 193.800 C 221.796 193.800,222.063 193.935,222.200 194.100 C 222.337 194.265,222.607 194.400,222.800 194.400 C 222.993 194.400,223.263 194.535,223.400 194.700 C 223.537 194.865,223.925 195.000,224.262 195.000 C 224.602 195.000,225.066 195.180,225.306 195.406 C 225.771 195.842,227.521 196.579,228.500 196.750 C 228.830 196.808,229.278 196.978,229.495 197.127 C 229.711 197.277,230.232 197.400,230.652 197.400 C 231.071 197.400,231.617 197.533,231.864 197.695 C 233.704 198.901,251.276 199.722,256.222 198.833 C 262.000 197.796,269.408 194.547,271.972 191.926 C 273.630 190.232,275.123 188.431,275.545 187.615 C 275.740 187.238,276.193 186.487,276.550 185.945 C 276.907 185.403,277.200 184.803,277.200 184.611 C 277.200 184.419,277.377 184.102,277.592 183.907 C 277.808 183.711,278.086 183.225,278.210 182.826 C 278.334 182.427,278.682 181.560,278.983 180.900 C 279.649 179.440,280.200 177.787,280.200 177.248 C 280.200 177.028,280.335 176.737,280.500 176.600 C 280.665 176.463,280.800 176.058,280.800 175.700 C 280.800 175.342,280.935 174.726,281.100 174.331 C 281.265 173.936,281.403 173.272,281.406 172.856 C 281.410 172.440,281.545 171.925,281.706 171.712 C 281.869 171.497,282.000 170.899,282.000 170.375 C 282.000 169.853,282.092 169.184,282.204 168.889 C 283.746 164.834,282.148 145.247,280.044 142.416 C 279.386 141.531,276.301 140.077,272.200 138.720 C 261.235 135.092,251.108 133.594,235.564 133.301 C 232.449 133.242,228.910 133.166,227.700 133.132 C 226.490 133.097,225.140 133.101,224.700 133.139 M247.000 141.591 C 248.473 141.818,251.103 142.020,253.400 142.084 C 255.945 142.154,257.682 142.296,258.400 142.493 C 259.005 142.659,260.067 142.796,260.760 142.798 C 261.453 142.799,262.264 142.926,262.563 143.081 C 262.861 143.235,263.554 143.426,264.103 143.504 C 264.651 143.583,265.415 143.808,265.800 144.003 C 266.185 144.199,266.995 144.589,267.600 144.870 C 272.173 146.995,273.315 150.412,273.289 161.900 C 273.270 170.350,271.113 178.531,267.807 182.691 C 267.473 183.111,267.200 183.511,267.200 183.580 C 267.200 184.376,261.942 188.813,259.803 189.823 C 258.866 190.265,257.875 190.745,257.600 190.891 C 257.325 191.036,256.614 191.221,256.019 191.301 C 255.425 191.380,254.641 191.571,254.276 191.723 C 253.307 192.128,241.003 192.124,239.854 191.719 C 239.416 191.564,238.437 191.373,237.679 191.294 C 236.920 191.215,236.057 191.026,235.760 190.875 C 235.463 190.724,234.743 190.505,234.160 190.389 C 233.577 190.273,232.785 190.054,232.400 189.902 C 232.015 189.751,231.115 189.401,230.400 189.126 C 229.158 188.647,226.233 187.234,225.600 186.807 C 225.435 186.696,224.715 186.234,224.000 185.780 C 219.460 182.900,215.720 177.558,214.420 172.100 C 214.315 171.660,214.046 170.566,213.822 169.668 C 212.621 164.857,212.567 154.079,213.707 146.790 C 214.149 143.972,214.763 142.718,216.100 141.907 L 217.100 141.300 227.300 141.200 C 241.015 141.066,243.977 141.124,247.000 141.591 M162.157 141.601 C 163.288 141.820,164.773 142.001,165.457 142.003 C 166.141 142.005,167.240 142.146,167.900 142.316 C 168.560 142.486,169.460 142.696,169.900 142.783 C 171.903 143.178,173.531 144.814,174.098 147.000 C 174.872 149.984,175.025 164.400,174.311 167.060 C 174.140 167.698,174.000 168.430,174.000 168.687 C 174.000 170.161,170.852 178.555,169.615 180.380 C 169.421 180.666,169.026 181.261,168.737 181.703 C 167.278 183.930,164.788 186.309,162.541 187.622 C 160.892 188.586,160.609 188.735,159.600 189.173 C 159.105 189.388,158.370 189.707,157.966 189.884 C 157.562 190.060,156.932 190.261,156.566 190.331 C 156.200 190.401,155.585 190.613,155.200 190.803 C 154.815 190.992,154.051 191.213,153.503 191.293 C 152.954 191.373,152.279 191.553,152.003 191.693 C 151.726 191.832,150.691 192.010,149.702 192.088 C 148.712 192.165,147.452 192.315,146.902 192.421 C 145.406 192.709,142.309 192.654,140.500 192.307 C 139.620 192.138,138.568 192.000,138.163 192.000 C 137.758 192.000,137.173 191.900,136.863 191.778 C 136.553 191.656,135.805 191.440,135.200 191.298 C 133.925 190.999,131.937 190.259,130.103 189.401 C 129.395 189.071,128.775 188.800,128.725 188.800 C 128.401 188.800,123.017 185.187,122.099 184.353 C 121.946 184.214,121.174 183.515,120.383 182.800 C 118.576 181.166,116.878 179.057,115.844 177.165 C 111.619 169.429,111.669 152.271,115.933 146.676 C 116.555 145.859,118.725 144.773,120.300 144.489 C 120.740 144.410,121.531 144.178,122.057 143.973 C 122.584 143.768,123.442 143.600,123.964 143.600 C 124.486 143.600,125.405 143.461,126.006 143.292 C 126.608 143.122,128.585 142.902,130.400 142.802 C 132.215 142.703,134.015 142.523,134.400 142.402 C 134.785 142.281,137.232 142.101,139.838 142.002 C 142.445 141.903,145.685 141.724,147.038 141.605 C 152.882 141.092,159.528 141.090,162.157 141.601 M236.081 152.257 C 232.582 154.285,231.936 163.972,235.143 166.323 C 239.106 169.228,243.090 163.327,241.692 156.625 C 240.930 152.970,238.335 150.951,236.081 152.257 M238.523 152.783 C 243.018 154.824,241.430 167.447,236.834 166.209 C 234.459 165.570,233.578 163.220,234.019 158.700 C 234.488 153.886,236.149 151.704,238.523 152.783 M146.949 153.590 C 141.309 157.166,143.677 169.445,149.749 168.111 C 152.859 167.428,153.667 158.444,150.958 154.672 C 149.727 152.957,148.478 152.620,146.949 153.590 M149.605 154.250 C 150.394 154.703,150.934 155.627,151.621 157.700 C 152.048 158.990,151.990 163.678,151.533 164.800 C 149.817 169.014,145.965 168.397,144.821 163.725 C 143.465 158.194,146.389 152.404,149.605 154.250 M223.400 230.824 C 223.125 230.934,222.474 231.297,221.952 231.631 C 219.841 232.985,209.952 236.091,203.600 237.396 C 198.086 238.529,195.942 238.695,186.800 238.697 L 178.500 238.700 174.290 237.773 C 171.974 237.263,169.370 236.561,168.502 236.214 C 164.636 234.665,162.000 235.836,162.000 239.102 C 162.000 242.137,164.211 243.335,173.543 245.356 L 177.900 246.300 186.500 246.295 C 197.208 246.290,202.375 245.734,209.500 243.821 C 214.991 242.347,216.097 242.008,220.840 240.339 C 225.772 238.604,227.845 237.213,228.382 235.276 C 229.230 232.224,226.349 229.651,223.400 230.824 " stroke="none" fill="#24364f" fill-rule="evenodd"></path><path id="path1" d="M220.204 141.793 C 220.041 141.896,219.219 142.041,218.377 142.114 C 216.664 142.264,216.701 142.247,215.947 143.165 C 215.489 143.722,215.400 144.021,215.400 145.002 C 215.400 146.454,215.216 146.953,214.367 147.802 L 213.700 148.470 213.776 154.685 C 213.818 158.103,213.875 161.260,213.903 161.700 C 213.931 162.140,213.970 163.355,213.990 164.400 C 214.009 165.445,214.115 166.588,214.225 166.940 C 214.360 167.374,214.357 167.706,214.216 167.970 C 214.057 168.267,214.076 168.386,214.292 168.469 C 214.449 168.530,214.679 168.966,214.802 169.439 C 214.925 169.913,215.148 170.750,215.298 171.300 C 215.447 171.850,215.676 172.835,215.807 173.489 C 215.938 174.144,216.281 175.044,216.570 175.489 C 217.223 176.496,217.600 177.340,217.600 177.792 C 217.600 177.982,218.136 178.687,218.791 179.358 C 219.446 180.030,220.218 180.954,220.507 181.412 C 221.359 182.761,223.515 184.762,224.363 184.990 C 224.783 185.103,225.446 185.535,225.876 185.976 C 226.415 186.528,227.036 186.892,227.971 187.203 C 228.702 187.446,229.480 187.805,229.700 187.999 C 230.236 188.474,231.296 188.998,231.740 189.009 C 231.938 189.014,232.460 189.152,232.900 189.317 C 233.340 189.482,234.014 189.661,234.398 189.716 C 234.782 189.771,235.182 189.902,235.288 190.008 C 235.394 190.114,235.675 190.200,235.913 190.200 C 236.151 190.200,236.575 190.380,236.856 190.601 C 237.510 191.115,238.201 191.164,246.945 191.312 C 254.339 191.437,255.714 191.334,256.800 190.573 C 257.075 190.381,257.795 190.067,258.400 189.877 C 259.005 189.687,259.545 189.477,259.600 189.411 C 259.888 189.065,260.814 188.618,261.053 188.710 C 261.454 188.864,262.399 188.042,262.404 187.535 C 262.410 186.955,262.946 186.321,263.790 185.896 C 264.586 185.495,264.707 185.382,265.503 184.300 C 265.826 183.860,266.385 183.146,266.745 182.714 C 267.105 182.282,267.400 181.862,267.400 181.781 C 267.400 181.699,267.803 180.951,268.296 180.118 C 268.789 179.284,269.249 178.354,269.318 178.051 C 269.436 177.537,271.151 172.147,271.912 169.900 C 272.154 169.185,272.295 167.789,272.407 165.000 C 272.493 162.855,272.590 161.010,272.622 160.900 C 272.654 160.790,272.605 160.115,272.513 159.400 C 272.309 157.823,272.300 157.689,272.117 153.800 C 271.948 150.212,271.800 149.663,270.942 149.441 C 270.253 149.262,270.070 149.005,269.909 147.989 C 269.813 147.385,269.615 147.163,268.584 146.506 C 267.917 146.081,267.092 145.473,266.750 145.154 C 266.014 144.466,265.000 143.907,265.000 144.189 C 265.000 144.298,264.685 144.376,264.299 144.361 C 263.914 144.347,263.542 144.392,263.473 144.461 C 263.404 144.530,262.977 144.373,262.524 144.112 C 261.849 143.723,260.218 143.362,258.877 143.304 C 258.755 143.298,258.530 143.193,258.377 143.069 C 258.007 142.769,256.623 142.607,253.547 142.503 C 252.143 142.456,250.703 142.370,250.347 142.313 C 249.991 142.255,248.779 142.160,247.654 142.101 C 246.528 142.041,245.393 141.911,245.130 141.811 C 244.868 141.712,244.213 141.664,243.676 141.705 C 238.606 142.097,224.652 142.150,222.723 141.785 C 221.486 141.551,220.583 141.554,220.204 141.793 M160.798 142.040 C 160.558 142.129,157.112 142.159,153.140 142.107 C 147.285 142.031,145.671 142.069,144.609 142.305 C 143.653 142.518,142.302 142.580,139.600 142.535 C 136.321 142.481,135.684 142.526,134.000 142.925 C 130.616 143.729,126.218 144.197,124.769 143.909 C 124.024 143.760,123.884 143.803,121.500 144.915 C 120.950 145.171,119.825 145.608,119.000 145.885 C 117.473 146.397,115.843 147.793,115.479 148.900 C 115.407 149.120,115.175 149.545,114.964 149.844 C 114.723 150.187,114.546 150.854,114.488 151.644 C 114.437 152.335,114.303 153.395,114.189 154.000 C 113.756 156.308,113.617 159.753,113.790 163.896 C 113.887 166.208,113.955 168.145,113.942 168.200 C 113.928 168.255,114.071 168.751,114.259 169.303 C 114.447 169.855,114.779 171.242,114.997 172.385 C 115.215 173.528,115.507 174.616,115.647 174.802 C 115.786 174.989,116.194 175.530,116.553 176.005 C 116.915 176.484,117.264 177.232,117.335 177.684 C 117.449 178.405,117.786 178.816,120.212 181.200 C 124.557 185.469,125.017 185.842,126.520 186.315 C 127.111 186.501,127.697 186.776,127.822 186.927 C 127.947 187.077,128.156 187.200,128.288 187.200 C 128.419 187.200,128.798 187.507,129.131 187.883 C 129.515 188.317,130.093 188.674,130.718 188.863 C 132.111 189.285,134.419 190.407,134.298 190.603 C 134.150 190.842,135.334 191.061,136.565 191.022 C 137.656 190.988,139.919 191.439,140.784 191.863 C 141.725 192.324,147.764 192.135,148.634 191.617 C 149.220 191.268,149.805 191.156,151.534 191.062 C 153.524 190.955,153.795 190.890,154.864 190.271 C 155.504 189.900,156.629 189.411,157.364 189.183 C 159.162 188.628,159.558 188.429,160.537 187.590 C 160.997 187.195,161.762 186.751,162.237 186.603 C 163.366 186.249,164.634 185.278,165.543 184.071 C 165.945 183.537,166.752 182.577,167.337 181.939 C 167.922 181.300,168.400 180.617,168.400 180.421 C 168.400 180.226,168.754 179.748,169.186 179.360 C 169.741 178.862,170.013 178.427,170.111 177.877 C 170.188 177.450,170.547 176.470,170.908 175.700 C 171.270 174.930,171.741 173.760,171.956 173.100 C 172.171 172.440,172.589 171.270,172.885 170.500 C 173.181 169.730,173.457 168.605,173.498 168.000 C 173.539 167.395,173.633 166.000,173.707 164.900 C 173.918 161.738,173.861 150.254,173.626 148.600 C 173.508 147.775,173.410 146.989,173.406 146.854 C 173.391 146.264,170.709 143.877,169.800 143.645 C 168.504 143.313,165.569 142.581,165.100 142.471 C 163.783 142.165,161.169 141.903,160.798 142.040 M240.011 152.704 C 241.249 153.903,241.632 154.798,242.301 158.062 C 242.603 159.537,242.634 160.373,242.394 160.600 C 242.336 160.655,242.120 161.375,241.914 162.200 C 240.838 166.513,238.138 168.402,235.408 166.750 C 231.906 164.630,231.907 155.680,235.409 152.516 C 236.652 151.393,238.745 151.479,240.011 152.704 M149.600 153.024 C 150.999 153.810,152.406 156.199,152.707 158.300 C 152.886 159.541,152.963 159.679,153.318 159.385 C 153.554 159.189,153.600 159.316,153.600 160.176 C 153.600 161.151,153.310 161.593,153.158 160.850 C 153.118 160.658,152.963 161.445,152.814 162.600 C 152.304 166.529,150.999 168.600,149.035 168.600 C 142.755 168.600,141.318 156.473,147.200 153.118 C 148.297 152.493,148.631 152.480,149.600 153.024 M146.200 166.293 C 146.200 166.481,147.703 167.400,147.996 167.391 C 148.163 167.386,147.968 167.207,147.563 166.993 C 147.158 166.779,146.770 166.513,146.701 166.402 C 146.576 166.200,146.200 166.118,146.200 166.293 " stroke="none" fill="#64b3f0" fill-rule="evenodd"></path><path id="path2" d="M189.493 81.810 C 126.620 84.918,79.075 140.728,85.910 203.400 C 93.120 269.510,157.131 314.137,221.700 298.070 C 266.286 286.977,299.302 249.131,304.290 203.400 C 311.613 136.253,257.058 78.470,189.493 81.810 M243.500 133.413 C 258.145 134.228,275.990 138.441,279.774 141.976 C 281.970 144.027,283.440 157.267,282.575 167.200 C 282.224 171.227,282.159 171.669,281.881 171.948 C 281.710 172.118,281.600 172.646,281.600 173.290 C 281.600 173.989,281.498 174.436,281.300 174.600 C 281.119 174.750,281.000 175.188,281.000 175.700 C 281.000 176.212,280.881 176.650,280.700 176.800 C 280.526 176.944,280.400 177.381,280.400 177.839 C 280.400 178.274,280.265 178.763,280.100 178.929 C 279.935 179.094,279.800 179.436,279.800 179.690 C 279.800 179.943,279.665 180.263,279.500 180.400 C 279.335 180.537,279.200 180.807,279.200 181.000 C 279.200 181.193,279.065 181.463,278.900 181.600 C 278.735 181.737,278.600 182.131,278.600 182.477 C 278.600 182.904,278.381 183.358,277.916 183.896 C 277.539 184.332,277.280 184.767,277.339 184.863 C 277.398 184.959,277.257 185.296,277.024 185.611 C 276.791 185.926,276.600 186.266,276.600 186.367 C 276.600 186.468,276.465 186.663,276.300 186.800 C 276.135 186.937,276.000 187.205,276.000 187.396 C 276.000 187.586,275.460 188.331,274.800 189.052 C 274.140 189.772,273.600 190.447,273.600 190.552 C 273.600 191.224,270.455 193.567,267.681 194.960 C 260.728 198.453,257.072 199.300,249.000 199.289 C 242.041 199.279,233.295 198.560,231.919 197.885 C 231.600 197.728,230.958 197.600,230.494 197.600 C 230.014 197.600,229.549 197.479,229.417 197.320 C 229.289 197.166,228.851 196.996,228.442 196.941 C 227.332 196.792,225.947 196.239,225.306 195.689 C 224.985 195.412,224.485 195.200,224.155 195.200 C 223.834 195.200,223.436 195.065,223.271 194.900 C 223.106 194.735,222.809 194.600,222.610 194.600 C 222.412 194.600,222.137 194.465,222.000 194.300 C 221.863 194.135,221.554 194.000,221.313 194.000 C 221.072 194.000,220.616 193.730,220.300 193.400 C 219.984 193.070,219.529 192.800,219.290 192.800 C 219.050 192.800,218.625 192.620,218.345 192.400 C 218.066 192.180,217.725 192.000,217.589 192.000 C 217.339 192.000,215.557 190.639,215.433 190.353 C 215.397 190.269,215.259 190.200,215.127 190.200 C 214.704 190.200,210.800 185.874,210.800 185.405 C 210.800 185.280,210.530 184.891,210.201 184.539 C 209.871 184.188,209.601 183.819,209.601 183.719 C 209.600 183.620,209.376 183.065,209.102 182.486 C 207.138 178.333,204.695 169.160,202.794 158.800 C 202.054 154.762,202.195 155.030,200.321 154.104 L 198.876 153.390 193.888 153.377 C 186.304 153.357,184.076 154.030,184.141 156.325 C 184.152 156.697,184.079 157.051,183.980 157.112 C 183.881 157.173,183.800 157.651,183.800 158.174 C 183.800 158.697,183.621 160.559,183.402 162.312 C 183.184 164.065,183.002 166.310,182.998 167.300 C 182.973 174.013,179.293 180.807,171.212 189.060 C 166.162 194.218,163.297 195.664,152.900 198.305 C 138.955 201.846,122.864 197.529,115.100 188.162 C 112.554 185.090,109.412 179.689,108.881 177.469 C 108.806 177.156,108.674 176.809,108.588 176.698 C 108.396 176.452,107.825 174.098,107.593 172.600 C 107.500 171.995,107.283 170.780,107.111 169.900 C 105.576 162.018,105.534 158.036,106.922 151.829 C 108.653 144.085,112.670 138.890,117.242 138.484 C 117.934 138.422,118.860 138.249,119.300 138.098 C 121.430 137.370,136.126 135.505,145.600 134.761 C 151.018 134.335,167.846 134.404,171.000 134.865 C 178.414 135.949,181.656 137.698,182.768 141.212 C 184.186 145.698,183.413 145.274,190.457 145.426 C 194.290 145.509,197.009 145.664,198.362 145.878 C 202.190 146.483,203.799 145.912,204.199 143.807 C 204.544 141.984,205.143 141.020,207.182 139.000 C 212.545 133.687,222.083 132.220,243.500 133.413 M226.354 230.510 C 229.240 231.715,229.644 235.352,227.132 237.516 C 224.586 239.711,214.153 243.250,204.500 245.194 C 188.153 248.486,164.875 246.146,162.159 240.938 C 160.415 237.595,163.818 234.000,167.307 235.499 C 169.159 236.295,171.054 236.832,174.859 237.641 L 178.900 238.500 186.700 238.496 C 195.357 238.491,198.101 238.276,203.400 237.184 C 209.749 235.877,220.119 232.625,221.943 231.371 C 223.691 230.168,224.948 229.922,226.354 230.510 " stroke="none" fill="#ebe3fb" fill-rule="evenodd"></path><path id="path3" d="M191.150 81.741 C 191.398 81.789,191.803 81.789,192.050 81.741 C 192.298 81.693,192.095 81.654,191.600 81.654 C 191.105 81.654,190.903 81.693,191.150 81.741 M198.150 81.741 C 198.398 81.789,198.803 81.789,199.050 81.741 C 199.298 81.693,199.095 81.654,198.600 81.654 C 198.105 81.654,197.903 81.693,198.150 81.741 M117.292 113.850 L 116.300 114.900 117.350 113.908 C 117.928 113.362,118.400 112.889,118.400 112.858 C 118.400 112.708,118.215 112.874,117.292 113.850 M272.700 113.800 C 273.242 114.350,273.730 114.800,273.785 114.800 C 273.840 114.800,273.442 114.350,272.900 113.800 C 272.358 113.250,271.870 112.800,271.815 112.800 C 271.760 112.800,272.158 113.250,272.700 113.800 M232.750 133.141 C 232.998 133.189,233.403 133.189,233.650 133.141 C 233.898 133.093,233.695 133.054,233.200 133.054 C 232.705 133.054,232.503 133.093,232.750 133.141 M151.250 134.538 C 151.442 134.588,151.758 134.588,151.950 134.538 C 152.143 134.488,151.985 134.446,151.600 134.446 C 151.215 134.446,151.058 134.488,151.250 134.538 M179.422 137.250 C 179.471 137.278,180.138 137.885,180.905 138.600 L 182.300 139.900 181.006 138.550 C 180.294 137.808,179.626 137.200,179.522 137.200 C 179.418 137.200,179.373 137.222,179.422 137.250 M217.747 141.618 C 215.372 142.177,214.702 143.069,214.090 146.486 C 213.759 148.334,213.796 148.439,214.511 147.672 C 215.229 146.902,215.400 146.388,215.400 145.002 C 215.400 144.021,215.489 143.722,215.947 143.165 C 216.699 142.251,216.659 142.268,218.331 142.116 C 219.151 142.042,220.047 141.879,220.321 141.754 C 220.696 141.583,221.254 141.586,222.560 141.765 C 224.238 141.996,238.484 142.129,239.600 141.925 C 239.875 141.875,240.910 141.817,241.900 141.797 C 243.128 141.772,243.541 141.709,243.200 141.600 C 242.514 141.380,218.684 141.397,217.747 141.618 M152.000 141.788 C 148.740 141.980,150.660 142.177,155.669 142.164 C 160.511 142.152,161.891 142.047,160.700 141.781 C 159.995 141.624,154.725 141.628,152.000 141.788 M110.887 142.650 L 110.300 143.300 110.950 142.713 C 111.308 142.390,111.600 142.097,111.600 142.063 C 111.600 141.908,111.435 142.044,110.887 142.650 M137.200 142.405 C 136.837 142.645,143.390 142.631,144.185 142.391 C 144.479 142.301,143.156 142.228,141.100 142.220 C 139.027 142.212,137.373 142.290,137.200 142.405 M164.421 142.288 C 164.469 142.336,164.732 142.418,165.005 142.469 C 165.454 142.555,167.449 143.044,169.800 143.645 C 170.709 143.877,173.391 146.264,173.406 146.854 C 173.410 146.989,173.508 147.775,173.626 148.600 C 173.861 150.254,173.918 161.738,173.707 164.900 C 173.633 166.000,173.539 167.395,173.498 168.000 C 173.457 168.605,173.181 169.730,172.885 170.500 C 172.589 171.270,172.171 172.440,171.956 173.100 C 171.741 173.760,171.270 174.930,170.908 175.700 C 170.547 176.470,170.188 177.450,170.111 177.877 C 170.013 178.427,169.741 178.862,169.186 179.360 C 168.754 179.748,168.400 180.226,168.400 180.421 C 168.400 180.617,167.922 181.300,167.337 181.939 C 166.752 182.577,165.945 183.537,165.543 184.071 C 164.634 185.278,163.366 186.249,162.237 186.603 C 161.762 186.751,160.997 187.195,160.537 187.590 C 159.561 188.426,159.159 188.629,157.398 189.172 C 156.080 189.579,154.102 190.569,154.271 190.738 C 154.322 190.788,154.637 190.688,154.971 190.515 C 155.306 190.342,155.781 190.200,156.027 190.200 C 156.273 190.200,156.840 190.025,157.287 189.812 C 157.734 189.598,158.595 189.232,159.200 188.997 C 165.275 186.645,170.738 180.032,172.592 172.785 C 172.717 172.298,172.892 171.675,172.981 171.400 C 174.321 167.277,174.685 163.035,174.405 154.800 C 174.113 146.212,173.722 144.907,171.018 143.509 C 169.809 142.884,163.928 141.795,164.421 142.288 M250.433 142.299 C 250.613 142.480,254.400 142.550,254.400 142.373 C 254.400 142.278,253.485 142.200,252.367 142.200 C 251.248 142.200,250.378 142.245,250.433 142.299 M255.050 142.543 C 255.353 142.589,255.847 142.589,256.150 142.543 C 256.453 142.497,256.205 142.460,255.600 142.460 C 254.995 142.460,254.748 142.497,255.050 142.543 M258.414 143.094 C 258.525 143.205,258.724 143.299,258.858 143.304 C 260.175 143.353,261.845 143.721,262.524 144.112 C 262.977 144.373,263.404 144.530,263.473 144.461 C 263.542 144.392,263.914 144.347,264.299 144.361 C 264.685 144.376,265.000 144.310,265.000 144.215 C 265.000 144.008,264.504 143.800,264.010 143.800 C 263.813 143.800,263.123 143.631,262.476 143.424 C 261.176 143.009,258.077 142.757,258.414 143.094 M128.600 143.219 C 126.682 143.517,124.685 143.961,125.100 143.998 C 126.426 144.117,132.864 143.403,133.163 143.104 C 133.326 142.941,129.824 143.030,128.600 143.219 M121.900 144.409 C 121.350 144.615,120.655 144.787,120.355 144.792 C 119.860 144.799,119.134 145.075,117.227 145.981 C 116.243 146.448,114.395 149.383,114.401 150.469 C 114.403 150.753,115.120 149.717,115.486 148.900 C 116.089 147.557,117.597 146.295,119.200 145.795 C 120.025 145.537,121.096 145.118,121.580 144.863 C 122.064 144.608,122.576 144.400,122.718 144.400 C 122.860 144.400,123.032 144.310,123.100 144.200 C 123.264 143.934,123.086 143.965,121.900 144.409 M266.900 145.310 C 267.230 145.583,268.017 146.137,268.648 146.542 C 269.614 147.162,269.815 147.392,269.909 147.989 C 270.070 149.005,270.253 149.262,270.942 149.441 C 271.800 149.663,271.948 150.212,272.117 153.800 C 272.300 157.689,272.309 157.823,272.513 159.400 C 272.605 160.115,272.654 160.790,272.622 160.900 C 272.590 161.010,272.493 162.855,272.407 165.000 C 272.295 167.789,272.154 169.185,271.912 169.900 C 271.151 172.147,269.436 177.537,269.318 178.051 C 269.249 178.354,268.789 179.284,268.296 180.118 C 267.803 180.951,267.400 181.699,267.400 181.781 C 267.400 181.862,267.105 182.282,266.745 182.714 C 266.385 183.146,265.826 183.860,265.503 184.300 C 264.707 185.382,264.586 185.495,263.790 185.896 C 262.987 186.300,262.411 186.949,262.404 187.457 C 262.398 188.005,262.887 187.658,264.844 185.726 C 271.829 178.835,274.475 166.911,272.393 151.700 C 272.026 149.022,270.953 147.399,268.425 145.703 C 266.940 144.706,265.820 144.418,266.900 145.310 M213.333 153.491 C 212.534 173.763,216.507 182.520,229.100 188.233 C 231.249 189.208,232.713 189.737,234.200 190.079 C 234.805 190.217,235.480 190.424,235.700 190.538 C 235.920 190.652,236.370 190.803,236.700 190.875 L 237.300 191.006 236.828 190.603 C 236.568 190.381,236.159 190.200,235.918 190.200 C 235.677 190.200,235.394 190.114,235.288 190.008 C 235.182 189.902,234.782 189.771,234.398 189.716 C 234.014 189.661,233.340 189.482,232.900 189.317 C 232.460 189.152,231.938 189.014,231.740 189.009 C 231.296 188.998,230.236 188.474,229.700 187.999 C 229.480 187.805,228.702 187.446,227.971 187.203 C 227.036 186.892,226.415 186.528,225.876 185.976 C 225.446 185.535,224.783 185.103,224.363 184.990 C 223.515 184.762,221.359 182.761,220.507 181.412 C 220.218 180.954,219.446 180.030,218.791 179.358 C 218.136 178.687,217.600 177.982,217.600 177.792 C 217.600 177.340,217.223 176.496,216.570 175.489 C 216.281 175.044,215.938 174.144,215.807 173.489 C 215.676 172.835,215.447 171.850,215.298 171.300 C 215.148 170.750,214.925 169.913,214.802 169.439 C 214.679 168.966,214.449 168.530,214.292 168.469 C 214.076 168.386,214.057 168.267,214.216 167.970 C 214.357 167.706,214.360 167.374,214.225 166.940 C 214.115 166.588,214.009 165.445,213.990 164.400 C 213.970 163.355,213.928 162.140,213.896 161.700 C 213.864 161.260,213.820 158.650,213.798 155.900 C 213.751 149.967,213.519 148.766,213.333 153.491 M114.020 151.750 C 111.679 161.881,113.520 174.626,118.096 179.976 C 121.677 184.162,130.405 190.200,132.876 190.200 C 133.069 190.200,133.405 190.296,133.624 190.413 C 133.843 190.530,134.125 190.592,134.250 190.550 C 134.534 190.455,132.040 189.264,130.718 188.863 C 130.093 188.674,129.515 188.317,129.131 187.883 C 128.798 187.507,128.419 187.200,128.288 187.200 C 128.156 187.200,127.947 187.077,127.822 186.927 C 127.697 186.776,127.111 186.501,126.520 186.315 C 125.017 185.842,124.557 185.469,120.212 181.200 C 117.786 178.816,117.449 178.405,117.335 177.684 C 117.264 177.232,116.915 176.484,116.553 176.005 C 116.194 175.530,115.786 174.989,115.647 174.802 C 115.507 174.616,115.215 173.528,114.997 172.385 C 114.779 171.242,114.447 169.855,114.259 169.303 C 114.071 168.751,113.928 168.255,113.942 168.200 C 113.955 168.145,113.887 166.208,113.790 163.896 C 113.609 159.557,113.745 156.637,114.283 153.300 C 114.635 151.121,114.652 150.800,114.420 150.800 C 114.321 150.800,114.141 151.228,114.020 151.750 M237.000 152.744 C 233.735 153.923,233.050 164.590,236.173 165.624 C 239.133 166.603,240.852 164.253,240.873 159.200 C 240.890 155.069,239.051 152.003,237.000 152.744 M189.350 153.346 C 189.817 153.389,190.583 153.389,191.050 153.346 C 191.518 153.304,191.135 153.270,190.200 153.270 C 189.265 153.270,188.883 153.304,189.350 153.346 M194.550 153.348 C 195.238 153.387,196.363 153.387,197.050 153.348 C 197.738 153.309,197.175 153.277,195.800 153.277 C 194.425 153.277,193.863 153.309,194.550 153.348 M147.665 154.392 C 144.322 155.188,143.730 164.365,146.882 166.537 C 148.594 167.717,149.290 167.625,150.512 166.055 C 152.611 163.358,151.808 155.269,149.357 154.415 C 148.673 154.177,148.576 154.175,147.665 154.392 M242.230 159.687 C 242.249 160.189,242.323 160.600,242.393 160.600 C 242.615 160.600,242.625 159.039,242.405 158.903 C 242.269 158.819,242.208 159.095,242.230 159.687 M153.284 159.417 C 153.062 159.707,153.057 160.924,153.277 161.144 C 153.523 161.390,153.622 161.022,153.562 160.088 C 153.514 159.356,153.450 159.200,153.284 159.417 M282.657 164.700 C 282.659 165.250,282.698 165.451,282.744 165.147 C 282.789 164.843,282.788 164.393,282.741 164.147 C 282.693 163.901,282.656 164.150,282.657 164.700 M281.376 173.956 C 281.310 174.354,281.340 174.540,281.451 174.429 C 281.551 174.329,281.600 174.033,281.559 173.773 C 281.496 173.373,281.468 173.401,281.376 173.956 M280.254 178.000 C 280.254 178.495,280.293 178.697,280.341 178.450 C 280.389 178.203,280.389 177.798,280.341 177.550 C 280.293 177.303,280.254 177.505,280.254 178.000 M279.677 179.288 C 279.616 179.447,279.601 179.739,279.645 179.938 C 279.693 180.164,279.762 180.056,279.827 179.650 C 279.936 178.969,279.865 178.798,279.677 179.288 M278.446 182.600 C 278.446 182.985,278.488 183.143,278.538 182.950 C 278.588 182.758,278.588 182.442,278.538 182.250 C 278.488 182.058,278.446 182.215,278.446 182.600 M171.996 188.150 L 170.300 189.900 172.050 188.204 C 173.675 186.630,173.891 186.400,173.746 186.400 C 173.716 186.400,172.928 187.188,171.996 188.150 M85.250 187.900 C 85.253 188.340,85.294 188.496,85.341 188.248 C 85.389 187.999,85.387 187.639,85.337 187.448 C 85.287 187.256,85.248 187.460,85.250 187.900 M304.850 187.900 C 304.853 188.340,304.894 188.496,304.941 188.248 C 304.989 187.999,304.987 187.639,304.937 187.448 C 304.887 187.256,304.848 187.460,304.850 187.900 M260.200 188.957 C 259.925 189.142,259.655 189.348,259.600 189.416 C 259.545 189.483,258.974 189.702,258.331 189.903 C 257.688 190.103,256.968 190.435,256.731 190.640 C 256.308 191.006,256.314 191.007,257.100 190.687 C 257.540 190.507,258.144 190.287,258.441 190.197 C 259.161 189.979,261.000 188.939,261.000 188.750 C 261.000 188.522,260.752 188.586,260.200 188.957 M213.800 189.063 C 213.800 189.097,214.093 189.390,214.450 189.713 L 215.100 190.300 214.513 189.650 C 213.965 189.044,213.800 188.908,213.800 189.063 M272.492 191.650 L 271.500 192.700 272.550 191.708 C 273.127 191.162,273.600 190.689,273.600 190.658 C 273.600 190.508,273.415 190.674,272.492 191.650 M137.000 191.391 C 138.174 191.766,140.996 192.101,140.686 191.829 C 140.371 191.552,137.692 190.999,136.771 191.020 L 135.900 191.040 137.000 191.391 M149.900 191.184 C 149.460 191.258,148.920 191.424,148.700 191.553 C 148.005 191.961,150.539 191.846,151.900 191.408 L 153.100 191.022 151.900 191.036 C 151.240 191.044,150.340 191.110,149.900 191.184 M239.500 191.149 C 240.072 191.745,252.449 192.137,253.700 191.600 C 253.973 191.483,253.625 191.423,252.600 191.412 C 246.505 191.348,239.705 191.167,239.521 191.065 C 239.373 190.982,239.366 191.010,239.500 191.149 M143.700 192.211 C 142.990 192.328,143.045 192.346,144.183 192.372 C 144.889 192.387,145.419 192.352,145.360 192.294 C 145.174 192.107,144.524 192.075,143.700 192.211 M220.481 193.550 C 220.691 193.798,221.062 194.000,221.307 194.000 C 221.551 194.000,221.855 194.125,221.982 194.278 C 222.232 194.579,223.256 194.852,223.082 194.571 C 223.024 194.477,222.813 194.400,222.613 194.400 C 222.413 194.400,222.137 194.265,222.000 194.100 C 221.863 193.935,221.567 193.800,221.341 193.800 C 221.116 193.800,220.744 193.643,220.516 193.450 C 220.100 193.100,220.100 193.100,220.481 193.550 M85.250 195.100 C 85.253 195.540,85.294 195.696,85.341 195.448 C 85.389 195.199,85.387 194.839,85.337 194.648 C 85.287 194.456,85.248 194.660,85.250 195.100 M304.850 195.100 C 304.853 195.540,304.894 195.696,304.941 195.448 C 304.989 195.199,304.987 194.839,304.937 194.648 C 304.887 194.456,304.848 194.660,304.850 195.100 M143.157 199.548 C 143.738 199.588,144.638 199.588,145.157 199.547 C 145.676 199.506,145.200 199.473,144.100 199.473 C 143.000 199.474,142.576 199.507,143.157 199.548 M224.453 230.344 C 224.757 230.389,225.207 230.388,225.453 230.341 C 225.699 230.293,225.450 230.256,224.900 230.257 C 224.350 230.259,224.149 230.298,224.453 230.344 M227.000 230.863 C 227.000 230.897,227.293 231.190,227.650 231.513 L 228.300 232.100 227.713 231.450 C 227.165 230.844,227.000 230.708,227.000 230.863 M162.621 236.507 C 162.279 236.896,162.000 237.274,162.000 237.347 C 162.000 237.420,162.068 237.395,162.152 237.290 C 162.235 237.186,162.567 236.808,162.889 236.450 C 163.211 236.093,163.422 235.800,163.358 235.800 C 163.294 235.800,162.962 236.118,162.621 236.507 M227.287 237.250 L 226.700 237.900 227.350 237.313 C 227.956 236.765,228.092 236.600,227.937 236.600 C 227.903 236.600,227.610 236.893,227.287 237.250 M195.850 238.338 C 196.043 238.388,196.358 238.388,196.550 238.338 C 196.743 238.288,196.585 238.246,196.200 238.246 C 195.815 238.246,195.658 238.288,195.850 238.338 M161.646 239.000 C 161.646 239.385,161.688 239.543,161.738 239.350 C 161.788 239.157,161.788 238.843,161.738 238.650 C 161.688 238.457,161.646 238.615,161.646 239.000 M193.552 238.541 C 193.801 238.589,194.161 238.587,194.352 238.537 C 194.544 238.487,194.340 238.448,193.900 238.450 C 193.460 238.453,193.304 238.494,193.552 238.541 M183.858 238.748 C 184.605 238.787,185.775 238.787,186.458 238.748 C 187.141 238.709,186.530 238.677,185.100 238.678 C 183.670 238.678,183.111 238.710,183.858 238.748 M178.850 246.538 C 179.043 246.588,179.358 246.588,179.550 246.538 C 179.743 246.488,179.585 246.446,179.200 246.446 C 178.815 246.446,178.658 246.488,178.850 246.538 M191.755 246.547 C 192.226 246.589,192.946 246.588,193.355 246.545 C 193.765 246.502,193.380 246.468,192.500 246.469 C 191.620 246.469,191.285 246.504,191.755 246.547 M183.450 246.749 C 184.303 246.786,185.697 246.786,186.550 246.749 C 187.403 246.711,186.705 246.680,185.000 246.680 C 183.295 246.680,182.597 246.711,183.450 246.749 M117.300 269.200 C 117.842 269.750,118.330 270.200,118.385 270.200 C 118.440 270.200,118.042 269.750,117.500 269.200 C 116.958 268.650,116.470 268.200,116.415 268.200 C 116.360 268.200,116.758 268.650,117.300 269.200 M272.692 269.250 L 271.700 270.300 272.750 269.308 C 273.726 268.385,273.892 268.200,273.742 268.200 C 273.711 268.200,273.238 268.673,272.692 269.250 M191.152 301.341 C 191.401 301.389,191.761 301.387,191.952 301.337 C 192.144 301.287,191.940 301.248,191.500 301.250 C 191.060 301.253,190.904 301.294,191.152 301.341 M198.352 301.341 C 198.601 301.389,198.961 301.387,199.152 301.337 C 199.344 301.287,199.140 301.248,198.700 301.250 C 198.260 301.253,198.104 301.294,198.352 301.341 " stroke="none" fill="#86b4da" fill-rule="evenodd"></path><path id="path4" d="M189.453 81.744 C 189.757 81.789,190.207 81.788,190.453 81.741 C 190.699 81.693,190.450 81.656,189.900 81.657 C 189.350 81.659,189.149 81.698,189.453 81.744 M199.853 81.744 C 200.157 81.789,200.607 81.788,200.853 81.741 C 201.099 81.693,200.850 81.656,200.300 81.657 C 199.750 81.659,199.549 81.698,199.853 81.744 M119.200 111.900 C 118.714 112.395,118.362 112.800,118.417 112.800 C 118.472 112.800,118.914 112.395,119.400 111.900 C 119.886 111.405,120.238 111.000,120.183 111.000 C 120.128 111.000,119.686 111.405,119.200 111.900 M270.792 111.850 C 271.620 112.733,271.800 112.892,271.800 112.742 C 271.800 112.710,271.373 112.282,270.850 111.792 L 269.900 110.900 270.792 111.850 M115.491 115.650 L 114.700 116.500 115.550 115.709 C 116.340 114.974,116.492 114.800,116.341 114.800 C 116.308 114.800,115.925 115.183,115.491 115.650 M274.592 115.650 C 275.420 116.533,275.600 116.692,275.600 116.542 C 275.600 116.510,275.173 116.082,274.650 115.592 L 273.700 114.700 274.592 115.650 M224.450 133.138 C 224.643 133.188,224.957 133.188,225.150 133.138 C 225.343 133.088,225.185 133.046,224.800 133.046 C 224.415 133.046,224.257 133.088,224.450 133.138 M227.856 133.147 C 228.382 133.189,229.192 133.188,229.656 133.146 C 230.120 133.104,229.690 133.070,228.700 133.071 C 227.710 133.072,227.330 133.106,227.856 133.147 M237.950 133.346 C 238.418 133.389,239.183 133.389,239.650 133.346 C 240.118 133.304,239.735 133.270,238.800 133.270 C 237.865 133.270,237.482 133.304,237.950 133.346 M242.850 133.543 C 243.153 133.589,243.648 133.589,243.950 133.543 C 244.253 133.497,244.005 133.460,243.400 133.460 C 242.795 133.460,242.548 133.497,242.850 133.543 M246.152 133.741 C 246.401 133.789,246.761 133.787,246.952 133.737 C 247.144 133.687,246.940 133.648,246.500 133.650 C 246.060 133.653,245.904 133.694,246.152 133.741 M152.850 134.546 C 153.263 134.589,153.938 134.589,154.350 134.546 C 154.763 134.503,154.425 134.467,153.600 134.467 C 152.775 134.467,152.438 134.503,152.850 134.546 M163.850 134.543 C 164.153 134.589,164.648 134.589,164.950 134.543 C 165.253 134.497,165.005 134.460,164.400 134.460 C 163.795 134.460,163.548 134.497,163.850 134.543 M148.250 134.743 C 148.553 134.789,149.047 134.789,149.350 134.743 C 149.653 134.697,149.405 134.660,148.800 134.660 C 148.195 134.660,147.947 134.697,148.250 134.743 M144.950 134.941 C 145.197 134.989,145.603 134.989,145.850 134.941 C 146.097 134.893,145.895 134.854,145.400 134.854 C 144.905 134.854,144.703 134.893,144.950 134.941 M142.450 135.138 C 142.643 135.188,142.958 135.188,143.150 135.138 C 143.343 135.088,143.185 135.046,142.800 135.046 C 142.415 135.046,142.258 135.088,142.450 135.138 M140.250 135.338 C 140.442 135.388,140.758 135.388,140.950 135.338 C 141.143 135.288,140.985 135.246,140.600 135.246 C 140.215 135.246,140.058 135.288,140.250 135.338 M178.400 136.810 C 179.094 137.281,179.489 137.418,179.000 137.018 C 178.725 136.793,178.410 136.608,178.300 136.608 C 178.190 136.607,178.235 136.698,178.400 136.810 M179.600 137.463 C 179.600 137.497,179.893 137.790,180.250 138.113 L 180.900 138.700 180.313 138.050 C 179.765 137.444,179.600 137.308,179.600 137.463 M207.000 139.100 C 206.514 139.595,206.162 140.000,206.217 140.000 C 206.272 140.000,206.714 139.595,207.200 139.100 C 207.686 138.605,208.038 138.200,207.983 138.200 C 207.928 138.200,207.486 138.605,207.000 139.100 M117.450 138.538 C 117.642 138.588,117.958 138.588,118.150 138.538 C 118.343 138.488,118.185 138.446,117.800 138.446 C 117.415 138.446,117.258 138.488,117.450 138.538 M112.593 140.950 L 111.500 142.100 112.650 141.007 C 113.718 139.991,113.892 139.800,113.743 139.800 C 113.712 139.800,113.194 140.317,112.593 140.950 M227.300 141.200 L 217.100 141.300 216.100 141.907 C 214.763 142.718,214.149 143.972,213.707 146.790 C 212.567 154.079,212.621 164.857,213.822 169.668 C 214.046 170.566,214.315 171.660,214.420 172.100 C 215.720 177.558,219.460 182.900,224.000 185.780 C 224.715 186.234,225.435 186.696,225.600 186.807 C 226.233 187.234,229.158 188.647,230.400 189.126 C 231.115 189.401,232.015 189.751,232.400 189.902 C 232.785 190.054,233.577 190.273,234.160 190.389 C 234.743 190.505,235.463 190.724,235.760 190.875 C 236.057 191.026,236.920 191.215,237.679 191.294 C 238.437 191.373,239.416 191.564,239.854 191.719 C 241.003 192.124,253.307 192.128,254.276 191.723 C 254.641 191.571,255.425 191.380,256.019 191.301 C 256.614 191.221,257.325 191.036,257.600 190.891 C 257.875 190.745,258.866 190.265,259.803 189.823 C 261.942 188.813,267.200 184.376,267.200 183.580 C 267.200 183.511,267.473 183.111,267.807 182.691 C 271.113 178.531,273.270 170.350,273.289 161.900 C 273.315 150.412,272.173 146.995,267.600 144.870 C 266.995 144.589,266.185 144.199,265.800 144.003 C 265.415 143.808,264.651 143.583,264.103 143.504 C 263.554 143.426,262.861 143.235,262.563 143.081 C 262.264 142.926,261.453 142.799,260.760 142.798 C 260.067 142.796,259.005 142.659,258.400 142.493 C 257.682 142.296,255.945 142.154,253.400 142.084 C 251.103 142.020,248.473 141.818,247.000 141.591 C 243.977 141.124,241.015 141.066,227.300 141.200 M151.000 141.334 C 150.175 141.365,148.392 141.487,147.038 141.605 C 145.685 141.724,142.445 141.903,139.838 142.002 C 137.232 142.101,134.785 142.281,134.400 142.402 C 134.015 142.523,132.215 142.703,130.400 142.802 C 128.585 142.902,126.608 143.122,126.006 143.292 C 125.405 143.461,124.486 143.600,123.964 143.600 C 123.442 143.600,122.584 143.768,122.057 143.973 C 121.531 144.178,120.740 144.410,120.300 144.489 C 118.725 144.773,116.555 145.859,115.933 146.676 C 112.730 150.878,111.836 160.453,113.672 170.900 C 114.480 175.501,116.736 179.501,120.383 182.800 C 121.174 183.515,121.946 184.214,122.099 184.353 C 123.017 185.187,128.401 188.800,128.725 188.800 C 128.775 188.800,129.395 189.071,130.103 189.401 C 131.937 190.259,133.925 190.999,135.200 191.298 C 135.805 191.440,136.553 191.656,136.863 191.778 C 137.173 191.900,137.758 192.000,138.163 192.000 C 138.568 192.000,139.620 192.138,140.500 192.307 C 142.309 192.654,145.406 192.709,146.902 192.421 C 147.452 192.315,148.712 192.165,149.702 192.088 C 150.691 192.010,151.726 191.832,152.003 191.693 C 152.279 191.553,152.954 191.373,153.503 191.293 C 154.051 191.213,154.815 190.992,155.200 190.803 C 155.585 190.613,156.200 190.401,156.566 190.331 C 156.932 190.261,157.562 190.060,157.966 189.884 C 158.370 189.707,159.105 189.388,159.600 189.173 C 160.609 188.735,160.892 188.586,162.541 187.622 C 164.788 186.309,167.278 183.930,168.737 181.703 C 169.026 181.261,169.421 180.666,169.615 180.380 C 170.852 178.555,174.000 170.161,174.000 168.687 C 174.000 168.430,174.140 167.698,174.311 167.060 C 175.025 164.400,174.872 149.984,174.098 147.000 C 173.531 144.814,171.903 143.178,169.900 142.783 C 169.460 142.696,168.560 142.486,167.900 142.316 C 167.240 142.146,166.141 142.005,165.457 142.003 C 164.773 142.001,163.288 141.820,162.157 141.601 C 160.151 141.211,156.652 141.128,151.000 141.334 M245.600 141.779 C 246.095 141.908,248.660 142.096,251.300 142.197 C 254.018 142.302,256.780 142.516,257.668 142.691 C 258.530 142.861,259.666 143.000,260.192 143.000 C 260.718 143.000,261.711 143.180,262.400 143.400 C 263.089 143.620,263.843 143.801,264.076 143.802 C 264.309 143.803,264.981 144.028,265.570 144.302 C 266.158 144.576,266.739 144.800,266.860 144.800 C 267.820 144.800,271.069 147.753,271.787 149.278 C 272.705 151.228,273.413 160.331,273.014 165.047 C 271.783 179.582,265.662 188.462,254.900 191.326 C 252.672 191.919,242.715 191.972,239.982 191.406 C 238.905 191.183,237.770 190.996,237.462 190.991 C 237.153 190.986,236.540 190.845,236.100 190.676 C 235.660 190.508,234.805 190.247,234.200 190.098 C 232.654 189.716,231.187 189.179,229.100 188.233 C 217.109 182.792,212.902 174.392,213.273 156.627 C 213.509 145.281,214.355 142.441,217.747 141.611 C 218.882 141.332,244.473 141.487,245.600 141.779 M161.500 141.903 C 162.490 142.065,163.885 142.204,164.600 142.211 C 165.315 142.218,166.305 142.305,166.800 142.404 C 173.699 143.784,174.050 144.355,174.405 154.800 C 174.685 163.035,174.321 167.277,172.981 171.400 C 172.892 171.675,172.717 172.298,172.592 172.785 C 170.738 180.032,165.275 186.645,159.200 188.997 C 158.595 189.232,157.734 189.598,157.287 189.812 C 156.840 190.025,156.301 190.200,156.091 190.200 C 155.880 190.200,155.256 190.371,154.704 190.581 C 152.933 191.253,150.549 191.772,148.700 191.890 C 147.710 191.953,146.366 192.109,145.713 192.236 C 143.660 192.635,135.698 191.462,133.760 190.475 C 133.463 190.324,133.064 190.200,132.873 190.200 C 132.682 190.200,131.620 189.778,130.513 189.262 C 124.331 186.382,118.785 181.707,116.201 177.199 C 111.569 169.116,112.252 148.343,117.227 145.981 C 119.121 145.081,119.856 144.800,120.310 144.800 C 120.585 144.800,121.325 144.618,121.955 144.395 C 122.585 144.173,123.865 143.909,124.800 143.810 C 125.735 143.711,126.950 143.527,127.500 143.401 C 128.050 143.276,129.850 143.096,131.500 143.001 C 133.150 142.906,134.815 142.726,135.200 142.601 C 135.604 142.470,138.647 142.292,142.400 142.180 C 145.975 142.074,150.025 141.913,151.400 141.823 C 155.547 141.551,159.551 141.582,161.500 141.903 M183.616 144.212 C 183.600 144.517,184.290 145.400,184.543 145.400 C 184.613 145.400,184.485 145.197,184.260 144.950 C 184.035 144.703,183.802 144.365,183.741 144.200 C 183.647 143.941,183.629 143.943,183.616 144.212 M186.150 145.545 C 186.508 145.589,187.093 145.589,187.450 145.545 C 187.808 145.500,187.515 145.464,186.800 145.464 C 186.085 145.464,185.793 145.500,186.150 145.545 M192.650 145.543 C 192.953 145.589,193.447 145.589,193.750 145.543 C 194.053 145.497,193.805 145.460,193.200 145.460 C 192.595 145.460,192.347 145.497,192.650 145.543 M235.409 152.516 C 231.907 155.680,231.906 164.630,235.408 166.750 C 240.222 169.664,244.396 160.596,241.185 154.200 C 239.978 151.794,237.127 150.963,235.409 152.516 M239.358 152.469 C 243.534 155.550,242.573 165.601,237.972 166.957 C 234.107 168.097,231.732 161.785,233.758 155.759 C 234.894 152.378,237.311 150.959,239.358 152.469 M236.800 152.542 C 234.861 153.255,233.508 157.957,234.004 162.263 C 234.357 165.330,236.390 167.032,238.463 165.997 C 242.986 163.738,241.394 150.853,236.800 152.542 M147.200 153.118 C 141.318 156.473,142.755 168.600,149.035 168.600 C 153.855 168.600,154.324 155.679,149.600 153.024 C 148.631 152.480,148.297 152.493,147.200 153.118 M238.640 153.125 C 241.945 154.806,241.600 164.758,238.201 165.776 C 235.677 166.532,234.336 164.884,234.232 160.900 C 234.080 155.063,235.953 151.759,238.640 153.125 M149.654 153.400 C 153.518 155.679,153.593 167.267,149.749 168.111 C 146.406 168.846,143.801 165.595,143.799 160.687 C 143.798 155.780,146.978 151.821,149.654 153.400 M147.384 154.174 C 143.062 156.336,143.807 167.600,148.271 167.600 C 149.687 167.600,150.772 166.669,151.533 164.800 C 151.990 163.678,152.048 158.990,151.621 157.700 C 150.492 154.291,149.237 153.247,147.384 154.174 M149.473 154.476 C 151.280 155.231,152.378 161.183,151.320 164.485 C 149.628 169.769,144.828 167.340,144.805 161.187 C 144.786 156.231,146.788 153.354,149.473 154.476 M201.673 154.815 C 201.963 155.042,202.210 155.425,202.223 155.665 C 202.243 156.029,202.262 156.040,202.341 155.732 C 202.436 155.364,201.710 154.400,201.338 154.400 C 201.233 154.400,201.383 154.587,201.673 154.815 M183.682 157.074 C 183.625 157.224,183.606 157.832,183.642 158.424 L 183.707 159.500 183.803 158.150 C 183.901 156.790,183.876 156.570,183.682 157.074 M105.854 158.600 C 105.854 159.095,105.893 159.298,105.941 159.050 C 105.989 158.803,105.989 158.398,105.941 158.150 C 105.893 157.903,105.854 158.105,105.854 158.600 M182.870 167.600 C 182.870 168.535,182.904 168.918,182.946 168.450 C 182.989 167.983,182.989 167.218,182.946 166.750 C 182.904 166.283,182.870 166.665,182.870 167.600 M282.348 167.800 C 282.265 168.405,282.129 169.495,282.046 170.222 C 281.963 170.949,281.778 171.686,281.634 171.859 C 281.488 172.035,281.409 172.467,281.454 172.837 L 281.536 173.500 281.574 172.800 C 281.595 172.415,281.745 171.925,281.906 171.712 C 282.076 171.488,282.200 170.891,282.200 170.302 C 282.200 169.740,282.295 169.185,282.411 169.069 C 282.528 168.952,282.595 168.372,282.561 167.779 L 282.500 166.700 282.348 167.800 M182.525 170.225 C 182.455 170.576,182.434 170.901,182.480 170.946 C 182.525 170.992,182.624 170.746,182.700 170.400 C 182.776 170.054,182.796 169.730,182.745 169.679 C 182.694 169.628,182.595 169.874,182.525 170.225 M281.050 174.450 C 280.835 175.038,280.840 175.063,281.106 174.712 C 281.360 174.376,281.511 173.800,281.344 173.800 C 281.313 173.800,281.181 174.093,281.050 174.450 M279.835 178.600 C 279.605 179.247,279.611 179.275,279.912 178.973 C 280.092 178.794,280.204 178.479,280.162 178.274 C 280.105 177.997,280.020 178.081,279.835 178.600 M278.223 182.835 C 278.210 183.019,277.960 183.469,277.666 183.835 L 277.132 184.500 277.786 183.876 C 278.214 183.468,278.406 183.123,278.343 182.876 C 278.265 182.572,278.242 182.564,278.223 182.835 M210.350 184.613 C 210.597 184.895,210.800 185.227,210.800 185.351 C 210.800 185.475,210.882 185.627,210.981 185.688 C 211.385 185.938,210.926 185.002,210.431 184.567 L 209.900 184.100 210.350 184.613 M85.257 186.300 C 85.259 186.850,85.298 187.051,85.344 186.747 C 85.389 186.443,85.388 185.993,85.341 185.747 C 85.293 185.501,85.256 185.750,85.257 186.300 M173.789 186.150 L 173.100 186.900 173.850 186.211 C 174.548 185.569,174.692 185.400,174.539 185.400 C 174.506 185.400,174.168 185.738,173.789 186.150 M304.854 186.400 C 304.854 186.895,304.893 187.097,304.941 186.850 C 304.989 186.603,304.989 186.197,304.941 185.950 C 304.893 185.703,304.854 185.905,304.854 186.400 M276.201 186.459 C 276.044 186.702,275.757 187.215,275.561 187.600 C 275.366 187.985,274.523 189.110,273.689 190.100 C 272.601 191.391,272.491 191.561,273.302 190.700 C 274.664 189.254,276.000 187.508,276.000 187.174 C 276.000 187.041,276.149 186.766,276.332 186.565 C 276.515 186.363,276.624 186.157,276.575 186.108 C 276.525 186.059,276.357 186.217,276.201 186.459 M212.200 187.263 C 212.200 187.297,212.493 187.590,212.850 187.913 L 213.500 188.500 212.913 187.850 C 212.365 187.244,212.200 187.108,212.200 187.263 M214.538 189.622 C 215.067 190.074,215.747 190.659,216.048 190.922 C 216.350 191.185,216.676 191.400,216.774 191.400 C 216.871 191.400,217.063 191.535,217.200 191.700 C 217.337 191.865,217.607 192.000,217.800 192.000 C 217.993 192.000,218.263 192.135,218.400 192.300 C 218.537 192.465,218.740 192.600,218.851 192.600 C 218.963 192.600,218.825 192.420,218.545 192.200 C 218.266 191.980,217.946 191.800,217.836 191.800 C 217.588 191.800,214.604 189.597,214.226 189.135 C 214.075 188.951,213.867 188.800,213.763 188.800 C 213.660 188.800,214.009 189.170,214.538 189.622 M169.193 190.950 L 168.100 192.100 169.250 191.007 C 170.318 189.991,170.492 189.800,170.343 189.800 C 170.312 189.800,169.794 190.317,169.193 190.950 M224.600 195.146 C 224.765 195.208,225.154 195.471,225.465 195.730 C 225.776 195.988,226.136 196.200,226.265 196.199 C 226.394 196.199,226.217 196.026,225.872 195.815 C 225.526 195.605,225.184 195.335,225.110 195.216 C 225.037 195.097,224.824 195.007,224.638 195.016 C 224.362 195.029,224.355 195.053,224.600 195.146 M85.257 196.700 C 85.259 197.250,85.298 197.451,85.344 197.147 C 85.389 196.843,85.388 196.393,85.341 196.147 C 85.293 195.901,85.256 196.150,85.257 196.700 M304.854 196.600 C 304.854 197.095,304.893 197.298,304.941 197.050 C 304.989 196.803,304.989 196.398,304.941 196.150 C 304.893 195.903,304.854 196.105,304.854 196.600 M227.173 196.508 C 227.543 196.669,227.903 196.797,227.973 196.793 C 228.233 196.778,227.088 196.214,226.800 196.215 C 226.635 196.215,226.803 196.347,227.173 196.508 M228.200 196.877 C 228.200 196.920,228.465 196.994,228.789 197.041 C 229.114 197.089,229.333 197.054,229.278 196.964 C 229.179 196.803,228.200 196.725,228.200 196.877 M230.350 197.541 C 230.597 197.589,231.003 197.589,231.250 197.541 C 231.498 197.493,231.295 197.454,230.800 197.454 C 230.305 197.454,230.103 197.493,230.350 197.541 M246.752 199.341 C 247.001 199.389,247.361 199.387,247.552 199.337 C 247.744 199.287,247.540 199.248,247.100 199.250 C 246.660 199.253,246.504 199.294,246.752 199.341 M251.650 199.338 C 251.843 199.388,252.157 199.388,252.350 199.338 C 252.543 199.288,252.385 199.246,252.000 199.246 C 251.615 199.246,251.457 199.288,251.650 199.338 M223.250 230.698 C 222.893 230.854,222.600 231.025,222.600 231.080 C 222.600 231.135,222.912 231.049,223.294 230.890 C 225.267 230.065,227.361 230.834,228.222 232.700 C 228.425 233.140,228.593 233.383,228.596 233.240 C 228.628 231.316,225.381 229.772,223.250 230.698 M220.300 232.307 C 219.970 232.458,219.835 232.583,220.000 232.584 C 220.165 232.585,220.525 232.457,220.800 232.300 C 221.432 231.939,221.095 231.943,220.300 232.307 M217.838 233.137 C 217.363 233.304,217.010 233.477,217.054 233.520 C 217.145 233.612,219.000 233.002,219.000 232.881 C 219.000 232.756,218.772 232.806,217.838 233.137 M215.300 234.107 C 214.800 234.348,214.783 234.376,215.200 234.274 C 215.767 234.135,216.404 233.811,216.100 233.815 C 215.990 233.817,215.630 233.948,215.300 234.107 M211.700 235.200 C 211.448 235.308,211.411 235.372,211.600 235.372 C 211.765 235.372,212.080 235.295,212.300 235.200 C 212.552 235.092,212.589 235.028,212.400 235.028 C 212.235 235.028,211.920 235.105,211.700 235.200 M164.100 235.578 C 163.660 235.781,163.075 236.203,162.800 236.516 C 162.312 237.071,162.318 237.070,163.033 236.464 C 163.986 235.655,165.023 235.325,166.175 235.464 C 166.783 235.537,166.963 235.515,166.700 235.401 C 166.035 235.113,164.946 235.187,164.100 235.578 M208.100 236.200 C 207.848 236.308,207.811 236.372,208.000 236.372 C 208.165 236.372,208.480 236.295,208.700 236.200 C 208.952 236.092,208.989 236.028,208.800 236.028 C 208.635 236.028,208.320 236.105,208.100 236.200 M227.091 237.250 L 226.300 238.100 227.150 237.309 C 227.940 236.574,228.092 236.400,227.941 236.400 C 227.908 236.400,227.525 236.782,227.091 237.250 M204.700 237.000 C 204.161 237.137,204.151 237.153,204.600 237.156 C 204.875 237.158,205.325 237.088,205.600 237.000 C 206.272 236.785,205.546 236.785,204.700 237.000 M161.995 237.713 C 161.888 237.995,161.812 238.648,161.827 239.163 C 161.854 240.073,161.859 240.065,161.994 238.885 C 162.070 238.217,162.198 237.565,162.278 237.435 C 162.358 237.306,162.371 237.200,162.307 237.200 C 162.243 237.200,162.102 237.431,161.995 237.713 M200.250 237.938 C 200.442 237.988,200.758 237.988,200.950 237.938 C 201.143 237.888,200.985 237.846,200.600 237.846 C 200.215 237.846,200.058 237.888,200.250 237.938 M176.500 238.200 C 177.346 238.415,178.072 238.415,177.400 238.200 C 177.125 238.112,176.675 238.042,176.400 238.044 C 175.951 238.047,175.961 238.063,176.500 238.200 M198.752 238.141 C 199.001 238.189,199.361 238.187,199.552 238.137 C 199.744 238.087,199.540 238.048,199.100 238.050 C 198.660 238.053,198.504 238.094,198.752 238.141 M197.152 238.341 C 197.401 238.389,197.761 238.387,197.952 238.337 C 198.144 238.287,197.940 238.248,197.500 238.250 C 197.060 238.253,196.904 238.294,197.152 238.341 M194.950 238.541 C 195.197 238.589,195.603 238.589,195.850 238.541 C 196.097 238.493,195.895 238.454,195.400 238.454 C 194.905 238.454,194.703 238.493,194.950 238.541 M224.800 238.800 C 224.415 239.011,224.172 239.187,224.260 239.192 C 224.472 239.203,225.600 238.616,225.600 238.495 C 225.600 238.364,225.588 238.368,224.800 238.800 M180.150 238.746 C 180.618 238.789,181.383 238.789,181.850 238.746 C 182.317 238.704,181.935 238.670,181.000 238.670 C 180.065 238.670,179.683 238.704,180.150 238.746 M189.050 238.749 C 189.903 238.786,191.298 238.786,192.150 238.749 C 193.003 238.711,192.305 238.680,190.600 238.680 C 188.895 238.680,188.197 238.711,189.050 238.749 M221.238 240.137 C 220.763 240.304,220.410 240.477,220.454 240.520 C 220.497 240.563,221.020 240.426,221.616 240.214 C 222.212 240.002,222.565 239.830,222.400 239.830 C 222.235 239.831,221.712 239.969,221.238 240.137 M162.008 240.320 C 161.983 241.016,164.313 243.204,165.073 243.198 C 165.198 243.197,164.850 242.938,164.300 242.621 C 163.205 241.992,162.813 241.609,162.333 240.700 C 162.159 240.370,162.012 240.199,162.008 240.320 M218.100 241.307 C 217.600 241.548,217.583 241.576,218.000 241.474 C 218.567 241.335,219.204 241.011,218.900 241.015 C 218.790 241.017,218.430 241.148,218.100 241.307 M215.300 242.200 C 215.048 242.308,215.011 242.372,215.200 242.372 C 215.365 242.372,215.680 242.295,215.900 242.200 C 216.152 242.092,216.189 242.028,216.000 242.028 C 215.835 242.028,215.520 242.105,215.300 242.200 M211.700 243.200 C 211.448 243.308,211.411 243.372,211.600 243.372 C 211.765 243.372,212.080 243.295,212.300 243.200 C 212.552 243.092,212.589 243.028,212.400 243.028 C 212.235 243.028,211.920 243.105,211.700 243.200 M208.800 244.000 C 208.398 244.129,208.378 244.161,208.700 244.166 C 208.920 244.169,209.280 244.095,209.500 244.000 C 210.010 243.781,209.484 243.781,208.800 244.000 M167.900 244.200 C 168.120 244.295,168.435 244.372,168.600 244.372 C 168.789 244.372,168.752 244.308,168.500 244.200 C 168.280 244.105,167.965 244.028,167.800 244.028 C 167.611 244.028,167.648 244.092,167.900 244.200 M171.200 245.000 C 171.475 245.088,171.880 245.160,172.100 245.160 C 172.417 245.160,172.396 245.127,172.000 245.000 C 171.725 244.912,171.320 244.840,171.100 244.840 C 170.783 244.840,170.804 244.873,171.200 245.000 M204.200 245.000 C 203.804 245.127,203.783 245.160,204.100 245.160 C 204.320 245.160,204.725 245.088,205.000 245.000 C 205.396 244.873,205.417 244.840,205.100 244.840 C 204.880 244.840,204.475 244.912,204.200 245.000 M200.250 245.738 C 200.442 245.788,200.758 245.788,200.950 245.738 C 201.143 245.688,200.985 245.646,200.600 245.646 C 200.215 245.646,200.058 245.688,200.250 245.738 M198.552 245.941 C 198.801 245.989,199.161 245.987,199.352 245.937 C 199.544 245.887,199.340 245.848,198.900 245.850 C 198.460 245.853,198.304 245.894,198.552 245.941 M196.750 246.141 C 196.998 246.189,197.403 246.189,197.650 246.141 C 197.898 246.093,197.695 246.054,197.200 246.054 C 196.705 246.054,196.503 246.093,196.750 246.141 M178.050 246.338 C 178.243 246.388,178.558 246.388,178.750 246.338 C 178.942 246.288,178.785 246.246,178.400 246.246 C 178.015 246.246,177.858 246.288,178.050 246.338 M193.650 246.346 C 194.063 246.389,194.738 246.389,195.150 246.346 C 195.563 246.303,195.225 246.267,194.400 246.267 C 193.575 246.267,193.238 246.303,193.650 246.346 M182.550 246.550 C 184.118 246.583,186.683 246.583,188.250 246.550 C 189.817 246.516,188.535 246.488,185.400 246.488 C 182.265 246.488,180.983 246.516,182.550 246.550 M274.600 267.300 C 274.114 267.795,273.762 268.200,273.817 268.200 C 273.872 268.200,274.314 267.795,274.800 267.300 C 275.286 266.805,275.638 266.400,275.583 266.400 C 275.528 266.400,275.086 266.805,274.600 267.300 M115.500 267.400 C 115.930 267.840,116.326 268.200,116.381 268.200 C 116.436 268.200,116.130 267.840,115.700 267.400 C 115.270 266.960,114.874 266.600,114.819 266.600 C 114.764 266.600,115.070 266.960,115.500 267.400 M119.100 271.000 C 119.530 271.440,119.926 271.800,119.981 271.800 C 120.036 271.800,119.730 271.440,119.300 271.000 C 118.870 270.560,118.474 270.200,118.419 270.200 C 118.364 270.200,118.670 270.560,119.100 271.000 M270.891 271.050 L 270.100 271.900 270.950 271.109 C 271.740 270.374,271.892 270.200,271.741 270.200 C 271.708 270.200,271.325 270.582,270.891 271.050 M189.453 301.344 C 189.757 301.389,190.207 301.388,190.453 301.341 C 190.699 301.293,190.450 301.256,189.900 301.257 C 189.350 301.259,189.149 301.298,189.453 301.344 M199.853 301.344 C 200.157 301.389,200.607 301.388,200.853 301.341 C 201.099 301.293,200.850 301.256,200.300 301.257 C 199.750 301.259,199.549 301.298,199.853 301.344 " stroke="none" fill="#747178" fill-rule="evenodd"></path></g></svg>