<svg id="svg" version="1.1" width="60" height="60" x="5" y="5" viewBox="0, 0, 400,400"><g id="svgg"><path id="path0" d="M190.500 77.411 C 123.919 80.090,73.478 139.581,81.811 205.600 C 91.051 278.803,166.458 324.380,235.287 298.362 C 306.687 271.372,332.078 183.530,286.088 122.614 C 263.610 92.841,227.806 75.909,190.500 77.411 M206.200 82.089 C 223.072 83.982,237.726 88.856,251.600 97.189 C 291.683 121.263,312.209 168.007,302.787 213.758 C 290.971 271.135,235.933 309.183,177.897 300.096 C 116.154 290.429,74.778 230.593,87.413 169.242 C 97.149 121.965,137.419 86.040,185.200 82.006 C 186.575 81.889,188.060 81.760,188.500 81.719 C 190.647 81.515,203.476 81.783,206.200 82.089 M166.000 139.418 C 155.232 141.506,150.720 162.605,158.286 175.486 C 163.802 184.879,173.786 183.351,178.453 172.400 C 184.783 157.545,177.125 137.262,166.000 139.418 M221.200 139.418 C 211.545 141.290,206.441 159.481,211.947 172.400 C 218.055 186.733,231.637 183.897,235.179 167.549 C 238.385 152.751,230.832 137.551,221.200 139.418 M224.157 230.609 C 223.748 230.678,222.887 231.060,222.244 231.457 C 220.077 232.795,211.343 235.653,205.300 237.004 C 198.726 238.472,196.216 238.700,186.600 238.700 L 178.700 238.700 174.800 237.855 C 170.617 236.948,169.611 236.672,167.674 235.897 C 164.312 234.552,161.672 236.351,162.053 239.727 C 162.336 242.243,164.949 243.548,173.300 245.344 L 177.700 246.290 186.500 246.295 C 197.619 246.301,202.483 245.765,210.000 243.704 C 211.045 243.417,212.712 242.963,213.705 242.693 C 219.601 241.093,225.422 238.739,226.947 237.339 C 230.090 234.453,228.211 229.921,224.157 230.609 " stroke="none" fill="#343434" fill-rule="evenodd"></path><path id="path1" d="M189.493 81.810 C 141.373 84.188,100.208 118.065,88.526 164.900 C 73.864 223.678,109.763 283.456,168.500 298.070 C 233.068 314.136,297.080 269.509,304.290 203.400 C 311.613 136.254,257.057 78.470,189.493 81.810 M170.014 139.519 C 181.002 142.742,184.620 165.529,175.966 177.013 C 167.319 188.488,154.514 178.631,154.514 160.500 C 154.514 146.857,161.730 137.089,170.014 139.519 M226.000 139.769 C 233.218 142.590,237.835 155.922,235.430 167.000 C 230.428 190.039,209.714 184.804,209.714 160.500 C 209.714 146.381,217.513 136.453,226.000 139.769 M226.354 230.510 C 229.240 231.715,229.644 235.352,227.132 237.516 C 224.586 239.711,214.153 243.250,204.500 245.194 C 188.143 248.488,164.877 246.149,162.159 240.938 C 160.298 237.370,163.801 234.033,167.707 235.654 C 169.659 236.463,170.700 236.752,174.900 237.647 L 178.900 238.500 186.700 238.494 C 195.329 238.487,197.964 238.281,203.352 237.190 C 209.597 235.925,220.103 232.636,221.943 231.371 C 223.691 230.168,224.948 229.922,226.354 230.510 " stroke="none" fill="#ebe3fb" fill-rule="evenodd"></path><path id="path2" d="M189.450 81.738 C 189.643 81.788,189.958 81.788,190.150 81.738 C 190.343 81.688,190.185 81.646,189.800 81.646 C 189.415 81.646,189.258 81.688,189.450 81.738 M200.050 81.738 C 200.243 81.788,200.558 81.788,200.750 81.738 C 200.942 81.688,200.785 81.646,200.400 81.646 C 200.015 81.646,199.858 81.688,200.050 81.738 M119.287 111.850 L 118.700 112.500 119.350 111.913 C 119.708 111.590,120.000 111.297,120.000 111.263 C 120.000 111.108,119.835 111.244,119.287 111.850 M270.200 111.263 C 270.200 111.297,270.493 111.590,270.850 111.913 L 271.500 112.500 270.913 111.850 C 270.365 111.244,270.200 111.108,270.200 111.263 M274.200 115.263 C 274.200 115.297,274.493 115.590,274.850 115.913 L 275.500 116.500 274.913 115.850 C 274.365 115.244,274.200 115.108,274.200 115.263 M85.246 186.200 C 85.246 186.585,85.288 186.743,85.338 186.550 C 85.388 186.358,85.388 186.043,85.338 185.850 C 85.288 185.658,85.246 185.815,85.246 186.200 M304.846 186.200 C 304.846 186.585,304.888 186.743,304.938 186.550 C 304.988 186.358,304.988 186.043,304.938 185.850 C 304.888 185.658,304.846 185.815,304.846 186.200 M85.246 196.800 C 85.246 197.185,85.288 197.343,85.338 197.150 C 85.388 196.958,85.388 196.643,85.338 196.450 C 85.288 196.258,85.246 196.415,85.246 196.800 M304.846 196.800 C 304.846 197.185,304.888 197.343,304.938 197.150 C 304.988 196.958,304.988 196.643,304.938 196.450 C 304.888 196.258,304.846 196.415,304.846 196.800 M162.887 236.450 L 162.300 237.100 162.950 236.513 C 163.308 236.190,163.600 235.897,163.600 235.863 C 163.600 235.708,163.435 235.844,162.887 236.450 M227.189 237.150 L 226.500 237.900 227.250 237.211 C 227.948 236.569,228.092 236.400,227.939 236.400 C 227.906 236.400,227.568 236.738,227.189 237.150 M161.857 239.100 C 161.859 239.650,161.898 239.851,161.944 239.547 C 161.989 239.243,161.988 238.793,161.941 238.547 C 161.893 238.301,161.856 238.550,161.857 239.100 M180.050 238.743 C 180.353 238.789,180.847 238.789,181.150 238.743 C 181.453 238.697,181.205 238.660,180.600 238.660 C 179.995 238.660,179.748 238.697,180.050 238.743 M189.558 238.748 C 190.250 238.787,191.330 238.787,191.958 238.748 C 192.586 238.708,192.020 238.676,190.700 238.676 C 189.380 238.677,188.866 238.709,189.558 238.748 M194.253 246.344 C 194.557 246.389,195.007 246.388,195.253 246.341 C 195.499 246.293,195.250 246.256,194.700 246.257 C 194.150 246.259,193.949 246.298,194.253 246.344 M182.862 246.550 C 184.271 246.584,186.521 246.584,187.862 246.549 C 189.203 246.515,188.050 246.487,185.300 246.487 C 182.550 246.487,181.453 246.515,182.862 246.550 M274.687 267.250 L 274.100 267.900 274.750 267.313 C 275.356 266.765,275.492 266.600,275.337 266.600 C 275.303 266.600,275.010 266.893,274.687 267.250 M189.450 301.338 C 189.643 301.388,189.958 301.388,190.150 301.338 C 190.343 301.288,190.185 301.246,189.800 301.246 C 189.415 301.246,189.258 301.288,189.450 301.338 M200.050 301.338 C 200.243 301.388,200.558 301.388,200.750 301.338 C 200.942 301.288,200.785 301.246,200.400 301.246 C 200.015 301.246,199.858 301.288,200.050 301.338 " stroke="none" fill="#84838c" fill-rule="evenodd"></path><path id="path3" d="" stroke="none" fill="#8c8b94" fill-rule="evenodd"></path><path id="path4" d="M191.150 81.741 C 191.398 81.789,191.803 81.789,192.050 81.741 C 192.298 81.693,192.095 81.654,191.600 81.654 C 191.105 81.654,190.903 81.693,191.150 81.741 M198.150 81.741 C 198.398 81.789,198.803 81.789,199.050 81.741 C 199.298 81.693,199.095 81.654,198.600 81.654 C 198.105 81.654,197.903 81.693,198.150 81.741 M117.292 113.850 L 116.300 114.900 117.350 113.908 C 117.928 113.362,118.400 112.889,118.400 112.858 C 118.400 112.708,118.215 112.874,117.292 113.850 M272.700 113.800 C 273.242 114.350,273.730 114.800,273.785 114.800 C 273.840 114.800,273.442 114.350,272.900 113.800 C 272.358 113.250,271.870 112.800,271.815 112.800 C 271.760 112.800,272.158 113.250,272.700 113.800 M160.487 142.450 L 159.900 143.100 160.550 142.513 C 160.908 142.190,161.200 141.897,161.200 141.863 C 161.200 141.708,161.035 141.844,160.487 142.450 M174.000 141.863 C 174.000 141.897,174.293 142.190,174.650 142.513 L 175.300 143.100 174.713 142.450 C 174.165 141.844,174.000 141.708,174.000 141.863 M215.687 142.450 L 215.100 143.100 215.750 142.513 C 216.356 141.965,216.492 141.800,216.337 141.800 C 216.303 141.800,216.010 142.093,215.687 142.450 M229.200 141.863 C 229.200 141.897,229.493 142.190,229.850 142.513 L 230.500 143.100 229.913 142.450 C 229.365 141.844,229.200 141.708,229.200 141.863 M160.000 178.063 C 160.000 178.097,160.293 178.390,160.650 178.713 L 161.300 179.300 160.713 178.650 C 160.165 178.044,160.000 177.908,160.000 178.063 M174.487 178.650 L 173.900 179.300 174.550 178.713 C 174.908 178.390,175.200 178.097,175.200 178.063 C 175.200 177.908,175.035 178.044,174.487 178.650 M215.200 178.063 C 215.200 178.097,215.493 178.390,215.850 178.713 L 216.500 179.300 215.913 178.650 C 215.365 178.044,215.200 177.908,215.200 178.063 M229.687 178.650 L 229.100 179.300 229.750 178.713 C 230.356 178.165,230.492 178.000,230.337 178.000 C 230.303 178.000,230.010 178.293,229.687 178.650 M85.250 187.900 C 85.253 188.340,85.294 188.496,85.341 188.248 C 85.389 187.999,85.387 187.639,85.337 187.448 C 85.287 187.256,85.248 187.460,85.250 187.900 M304.850 187.900 C 304.853 188.340,304.894 188.496,304.941 188.248 C 304.989 187.999,304.987 187.639,304.937 187.448 C 304.887 187.256,304.848 187.460,304.850 187.900 M85.250 195.100 C 85.253 195.540,85.294 195.696,85.341 195.448 C 85.389 195.199,85.387 194.839,85.337 194.648 C 85.287 194.456,85.248 194.660,85.250 195.100 M304.850 195.100 C 304.853 195.540,304.894 195.696,304.941 195.448 C 304.989 195.199,304.987 194.839,304.937 194.648 C 304.887 194.456,304.848 194.660,304.850 195.100 M224.453 230.344 C 224.757 230.389,225.207 230.388,225.453 230.341 C 225.699 230.293,225.450 230.256,224.900 230.257 C 224.350 230.259,224.149 230.298,224.453 230.344 M227.000 230.863 C 227.000 230.897,227.293 231.190,227.650 231.513 L 228.300 232.100 227.713 231.450 C 227.165 230.844,227.000 230.708,227.000 230.863 M162.621 236.507 C 162.279 236.896,162.000 237.274,162.000 237.347 C 162.000 237.420,162.068 237.395,162.152 237.290 C 162.235 237.186,162.567 236.808,162.889 236.450 C 163.211 236.093,163.422 235.800,163.358 235.800 C 163.294 235.800,162.962 236.118,162.621 236.507 M227.287 237.250 L 226.700 237.900 227.350 237.313 C 227.956 236.765,228.092 236.600,227.937 236.600 C 227.903 236.600,227.610 236.893,227.287 237.250 M195.850 238.338 C 196.043 238.388,196.358 238.388,196.550 238.338 C 196.743 238.288,196.585 238.246,196.200 238.246 C 195.815 238.246,195.658 238.288,195.850 238.338 M161.646 239.000 C 161.646 239.385,161.688 239.543,161.738 239.350 C 161.788 239.157,161.788 238.843,161.738 238.650 C 161.688 238.457,161.646 238.615,161.646 239.000 M193.350 238.541 C 193.597 238.589,194.003 238.589,194.250 238.541 C 194.498 238.493,194.295 238.454,193.800 238.454 C 193.305 238.454,193.103 238.493,193.350 238.541 M183.858 238.748 C 184.605 238.787,185.775 238.787,186.458 238.748 C 187.141 238.709,186.530 238.677,185.100 238.678 C 183.670 238.678,183.111 238.710,183.858 238.748 M178.850 246.538 C 179.043 246.588,179.358 246.588,179.550 246.538 C 179.743 246.488,179.585 246.446,179.200 246.446 C 178.815 246.446,178.658 246.488,178.850 246.538 M191.755 246.547 C 192.226 246.589,192.946 246.588,193.355 246.545 C 193.765 246.502,193.380 246.468,192.500 246.469 C 191.620 246.469,191.285 246.504,191.755 246.547 M183.559 246.749 C 184.472 246.786,185.912 246.786,186.759 246.748 C 187.607 246.711,186.860 246.681,185.100 246.681 C 183.340 246.681,182.647 246.712,183.559 246.749 M117.300 269.200 C 117.842 269.750,118.330 270.200,118.385 270.200 C 118.440 270.200,118.042 269.750,117.500 269.200 C 116.958 268.650,116.470 268.200,116.415 268.200 C 116.360 268.200,116.758 268.650,117.300 269.200 M272.692 269.250 L 271.700 270.300 272.750 269.308 C 273.726 268.385,273.892 268.200,273.742 268.200 C 273.711 268.200,273.238 268.673,272.692 269.250 M191.152 301.341 C 191.401 301.389,191.761 301.387,191.952 301.337 C 192.144 301.287,191.940 301.248,191.500 301.250 C 191.060 301.253,190.904 301.294,191.152 301.341 M198.352 301.341 C 198.601 301.389,198.961 301.387,199.152 301.337 C 199.344 301.287,199.140 301.248,198.700 301.250 C 198.260 301.253,198.104 301.294,198.352 301.341 " stroke="none" fill="#a4a1b0" fill-rule="evenodd"></path></g></svg>